<?xml version="1.0" encoding="UTF-8" standalone="no"?>
<svg width="16px" height="16px" viewBox="0 0 16 16" version="1.1" xmlns="http://www.w3.org/2000/svg" xmlns:xlink="http://www.w3.org/1999/xlink">
    <!-- Generator: Sketch 46.2 (44496) - http://www.bohemiancoding.com/sketch -->
    <title>Ok Circle Filled Icon</title>
    <desc>Created with Sketch.</desc>
    <defs></defs>
    <g id="E、购买" stroke="none" stroke-width="1" fill="none" fill-rule="evenodd">
        <g id="微课-确认订单" transform="translate(-470.000000, -375.000000)" fill="#79DA0F">
            <g id="Group-10" transform="translate(272.000000, 80.000000)">
                <g id="Group-9" transform="translate(24.000000, 271.000000)">
                    <g id="Group-7">
                        <path d="M182,40 C186.418278,40 190,36.418278 190,32 C190,27.581722 186.418278,24 182,24 C177.581722,24 174,27.581722 174,32 C174,36.418278 177.581722,40 182,40 L182,40 L182,40 L182,40 Z M181.000375,35 C181.401331,35 181.77829,34.8423722 182.060259,34.5570459 L185.707532,30.724179 C186.097489,30.3291118 186.097489,29.6906194 185.707532,29.2955522 C185.316575,28.9014826 184.683644,28.9014826 184.293687,29.2955522 L181.000375,32.7722599 L179.707063,31.2955522 C179.317106,30.9014826 178.684175,30.9014826 178.293218,31.2955522 C177.902261,31.6906194 177.902261,32.3291118 178.293218,32.724179 L179.939491,34.5570459 C180.22346,34.8423722 180.598419,35 181.000375,35 L181.000375,35 L181.000375,35 L181.000375,35 Z" id="Ok-Circle-Filled-Icon"></path>
                    </g>
                </g>
            </g>
        </g>
    </g>
</svg>