<?xml version="1.0" encoding="UTF-8" standalone="no"?>
<svg width="10px" height="10px" viewBox="0 0 10 10" version="1.1" xmlns="http://www.w3.org/2000/svg" xmlns:xlink="http://www.w3.org/1999/xlink">
    <!-- Generator: Sketch 46.2 (44496) - http://www.bohemiancoding.com/sketch -->
    <title>Close Icon</title>
    <desc>Created with Sketch.</desc>
    <defs></defs>
    <g id="B、一级导航" stroke="none" stroke-width="1" fill="none" fill-rule="evenodd">
        <g id="【学生端】微课-添加课程" transform="translate(-650.000000, -276.000000)" fill-rule="nonzero" fill="#CDD3DC">
            <g id="Group" transform="translate(352.000000, 264.000000)">
                <g id="Icons/Close-Icon" transform="translate(298.000000, 12.000000)">
                    <path d="M4.11611652,5 L0.183058262,1.06694174 C-0.0610194206,0.822864056 -0.0610194206,0.427135944 0.183058262,0.183058262 C0.427135944,-0.0610194206 0.822864056,-0.0610194206 1.06694174,0.183058262 L5,4.11611652 L8.93305826,0.183058262 C9.17713594,-0.0610194206 9.57286406,-0.0610194206 9.81694174,0.183058262 C10.0610194,0.427135944 10.0610194,0.822864056 9.81694174,1.06694174 L5.88388348,5 L9.81694174,8.93305826 C10.0610194,9.17713594 10.0610194,9.57286406 9.81694174,9.81694174 C9.57286406,10.0610194 9.17713594,10.0610194 8.93305826,9.81694174 L5,5.88388348 L1.06694174,9.81694174 C0.822864056,10.0610194 0.427135944,10.0610194 0.183058262,9.81694174 C-0.0610194206,9.57286406 -0.0610194206,9.17713594 0.183058262,8.93305826 L4.11611652,5 L4.11611652,5 Z" id="Close-Icon"></path>
                </g>
            </g>
        </g>
    </g>
</svg>