<?xml version="1.0" encoding="UTF-8" standalone="no"?>
<svg width="16px" height="16px" viewBox="0 0 16 16" version="1.1" xmlns="http://www.w3.org/2000/svg" xmlns:xlink="http://www.w3.org/1999/xlink">
    <!-- Generator: Sketch 46.2 (44496) - http://www.bohemiancoding.com/sketch -->
    <title>Combined Shape</title>
    <desc>Created with Sketch.</desc>
    <defs></defs>
    <g id="B、一级导航" stroke="none" stroke-width="1" fill="none" fill-rule="evenodd">
        <g id="【学生端】微课-作业" transform="translate(-486.000000, -696.000000)" fill-rule="nonzero" fill="#D0021B">
            <g id="课程-copy-4" transform="translate(424.000000, 434.000000)">
                <path d="M66,270.5 C65.7238576,270.5 65.5,270.276142 65.5,270 C65.5,269.723858 65.7238576,269.5 66,269.5 L74,269.5 C74.2761424,269.5 74.5,269.723858 74.5,270 C74.5,270.276142 74.2761424,270.5 74,270.5 L66,270.5 Z M75.7715605,264.606038 C75.9489746,264.796008 75.9387964,265.093831 75.7488269,265.271245 C75.5588573,265.448659 75.261034,265.438481 75.0836199,265.248512 C74.9126627,265.065456 74.7329824,264.89076 74.5455797,264.725356 C73.4009708,263.71511 72.0108119,263.086458 70.6167741,262.964495 C66.9857559,262.646822 63.2966871,265.632448 62.9686402,269.382041 C62.6288228,273.266172 65.5020562,276.690358 69.3861865,277.030175 C73.2703169,277.369993 76.6945031,274.496759 77.0343204,270.612629 C77.1486893,269.305387 76.8579309,268.000205 76.2155954,266.816308 C76.0916367,266.587838 76.1763598,266.302139 76.4048296,266.17818 C76.6332994,266.054221 76.9189991,266.138944 77.0429577,266.367414 C77.7712456,267.709731 78.1029223,269.198591 77.9720325,270.694668 C77.5869061,275.096683 73.7061618,278.353014 69.3041474,277.967887 C64.902133,277.582761 61.6458018,273.702017 62.0309282,269.300002 C62.4049481,265.024934 66.5572089,261.66444 70.6988133,262.026783 C72.3000615,262.166874 73.8775194,262.880226 75.1684632,264.019629 C75.3785538,264.205058 75.5799452,264.400863 75.7715605,264.606038 Z" id="Combined-Shape"></path>
            </g>
        </g>
    </g>
</svg>