<?xml version="1.0" encoding="UTF-8" standalone="no"?>
<svg width="14px" height="14px" viewBox="0 0 14 14" version="1.1" xmlns="http://www.w3.org/2000/svg" xmlns:xlink="http://www.w3.org/1999/xlink">
    <!-- Generator: Sketch 46.2 (44496) - http://www.bohemiancoding.com/sketch -->
    <title>Icons/Info Icon</title>
    <desc>Created with Sketch.</desc>
    <defs></defs>
    <g id="B、一级导航" stroke="none" stroke-width="1" fill="none" fill-rule="evenodd">
        <g id="【学生端】微课-添加课程-状态" transform="translate(-180.000000, -505.000000)">
            <g id="Group-Copy-2" transform="translate(68.000000, 362.000000)">
                <g id="Group-2" transform="translate(113.000000, 141.000000)">
                    <g id="Icons/Info-Icon" transform="translate(0.000000, 3.000000)">
                        <circle id="Oval" stroke="#F5A623" fill="#FFFFFF" cx="6" cy="6" r="6"></circle>
                        <path d="M6.36121324,8.21139706 L7.10680404,8.21139706 C7.31177742,8.21139706 7.47794118,8.37662248 7.47794118,8.58363971 C7.47794118,8.78922364 7.30930174,8.95588235 7.10680404,8.95588235 L4.87113714,8.95588235 C4.66616376,8.95588235 4.5,8.79065694 4.5,8.58363971 C4.5,8.37805577 4.66863943,8.21139706 4.87113714,8.21139706 L5.61672794,8.21139706 L5.61672794,5.23345588 L5.2479728,5.23345588 C5.04046277,5.23345588 4.87224265,5.06823047 4.87224265,4.86121324 C4.87224265,4.6556293 5.03727761,4.48897059 5.2479728,4.48897059 L5.98548309,4.48897059 C6.19299312,4.48897059 6.36121324,4.654196 6.36121324,4.86121324 L6.36121324,8.21139706 Z M5.80284926,4.11672794 C6.11122517,4.11672794 6.36121324,3.86673988 6.36121324,3.55836397 C6.36121324,3.24998806 6.11122517,3 5.80284926,3 C5.49447336,3 5.24448529,3.24998806 5.24448529,3.55836397 C5.24448529,3.86673988 5.49447336,4.11672794 5.80284926,4.11672794 L5.80284926,4.11672794 L5.80284926,4.11672794 Z" id="Info-Icon" fill="#F5A623"></path>
                    </g>
                </g>
            </g>
        </g>
    </g>
</svg>