<?xml version="1.0" encoding="UTF-8" standalone="no"?>
<svg width="320px" height="252px" viewBox="0 0 320 252" version="1.1" xmlns="http://www.w3.org/2000/svg" xmlns:xlink="http://www.w3.org/1999/xlink">
    <!-- Generator: Sketch 46.2 (44496) - http://www.bohemiancoding.com/sketch -->
    <title>Group</title>
    <desc>Created with Sketch.</desc>
    <defs></defs>
    <g id="A、公共" stroke="none" stroke-width="1" fill="none" fill-rule="evenodd">
        <g id="001-闪屏" transform="translate(-224.000000, -201.000000)">
            <g id="Group" transform="translate(224.000000, 201.000000)">
                <text id="成实外旗下在线英语教育平台" font-family="PingFangSC-Regular, PingFang SC" font-size="20.48" font-weight="normal" fill="#C0C7D3">
                    <tspan x="36.38" y="195">成实外旗下在线英语教育平台</tspan>
                </text>
                <g id="Page-1">
                    <path d="M156.040448,4.01549848 L154.262528,4.01549848 L154.262528,2.2387066 C154.262528,1.00237157 153.259648,0.000127918782 152.022528,0.000127918782 C150.785408,0.000127918782 149.782528,1.00237157 149.782528,2.2387066 L149.782528,4.01549848 L148.003968,4.01549848 C146.766848,4.01549848 145.763968,5.01774213 145.763968,6.25407716 C145.763968,7.49041218 146.766848,8.49265584 148.003968,8.49265584 L149.782528,8.49265584 L149.782528,10.2694477 C149.782528,11.5057827 150.785408,12.5080264 152.022528,12.5080264 C153.259648,12.5080264 154.262528,11.5057827 154.262528,10.2694477 L154.262528,8.49265584 L156.040448,8.49265584 C157.277568,8.49265584 158.280448,7.49041218 158.280448,6.25407716 C158.280448,5.01774213 157.277568,4.01549848 156.040448,4.01549848 M286.170368,100.078666 L284.391808,100.078666 L284.391808,98.3018741 C284.391808,97.0655391 283.388928,96.0632954 282.151808,96.0632954 C280.914688,96.0632954 279.911808,97.0655391 279.911808,98.3018741 L279.911808,100.078666 L278.133888,100.078666 C276.896768,100.078666 275.893888,101.08091 275.893888,102.317245 C275.893888,103.55358 276.896768,104.555823 278.133888,104.555823 L279.911808,104.555823 L279.911808,106.332615 C279.911808,107.56895 280.914688,108.571194 282.151808,108.571194 C283.388928,108.571194 284.391808,107.56895 284.391808,106.332615 L284.391808,104.555823 L286.170368,104.555823 C287.407488,104.555823 288.410368,103.55358 288.410368,102.317245 C288.410368,101.08091 287.407488,100.078666 286.170368,100.078666" id="Fill-1" fill="#3D5372"></path>
                    <path d="M195.546304,44.2750569 C193.160384,46.1094122 190.435904,43.3866609 192.271424,41.0022548 C194.657344,39.1678995 197.381824,41.8906508 195.546304,44.2750569 M198.823104,37.7288132 C191.662784,32.2270264 183.491264,40.3901635 188.994624,47.5478589 C196.154304,53.0502853 204.326464,44.8865086 198.823104,37.7288132 M103.854784,210.501676 L101.001024,210.501676 L101.001024,207.648448 C99.025344,205.401554 96.521024,206.770925 96.521024,208.724245 L96.521024,210.501676 L93.667264,210.501676 C91.417664,212.474184 92.787904,214.978834 94.743104,214.978834 L96.521024,214.978834 L96.521024,217.831422 C98.497344,220.078955 101.001024,218.708945 101.001024,216.755625 L101.001024,214.978834 L102.779584,214.978834 C104.734784,214.978834 106.104384,212.474184 103.854784,210.501676 M256.752064,167.649524 C255.516864,167.649524 254.512064,166.645361 254.512064,165.410945 C254.512064,164.177169 255.516864,163.172366 256.752064,163.172366 C257.987264,163.172366 258.992064,164.177169 258.992064,165.410945 C258.992064,166.645361 257.987264,167.649524 256.752064,167.649524 M256.752064,158.695209 C253.046464,158.695209 250.032064,161.707696 250.032064,165.410945 C250.032064,169.114194 253.046464,172.126681 256.752064,172.126681 C260.457664,172.126681 263.472064,169.114194 263.472064,165.410945 C263.472064,161.707696 260.457664,158.695209 256.752064,158.695209 M10.756544,101.860255 L8.978624,101.860255 L8.978624,100.082823 C8.978624,98.8471279 7.975744,97.8442447 6.738624,97.8442447 C5.501504,97.8442447 4.498624,98.8471279 4.498624,100.082823 L4.498624,101.860255 L2.720064,101.860255 C1.482944,101.860255 0.480064,102.862498 0.480064,104.098834 C0.480064,105.334529 1.482944,106.337412 2.720064,106.337412 L4.498624,106.337412 L4.498624,108.114204 C4.498624,109.350539 5.501504,110.352783 6.738624,110.352783 C7.975744,110.352783 8.978624,109.350539 8.978624,108.114204 L8.978624,106.337412 L10.756544,106.337412 C11.993664,106.337412 12.996544,105.334529 12.996544,104.098834 C12.996544,102.862498 11.993664,101.860255 10.756544,101.860255" id="Fill-3" fill="#A1E8B1"></path>
                    <path d="M259.548928,58.3085787 C258.313728,58.3085787 257.308928,57.3044162 257.308928,56.07 C257.308928,54.8355838 258.313728,53.8314213 259.548928,53.8314213 C260.784128,53.8314213 261.788928,54.8355838 261.788928,56.07 C261.788928,57.3044162 260.784128,58.3085787 259.548928,58.3085787 M259.548928,49.354264 C255.843328,49.354264 252.828928,52.3667513 252.828928,56.07 C252.828928,59.7732487 255.843328,62.785736 259.548928,62.785736 C263.254528,62.785736 266.268928,59.7732487 266.268928,56.07 C266.268928,52.3667513 263.254528,49.354264 259.548928,49.354264 M313.024128,149.743005 C311.788928,149.743005 310.784128,148.738843 310.784128,147.504426 C310.784128,146.27001 311.788928,145.265848 313.024128,145.265848 C314.259328,145.265848 315.264128,146.27001 315.264128,147.504426 C315.264128,148.738843 314.259328,149.743005 313.024128,149.743005 M313.024128,140.78869 C309.319168,140.78869 306.304128,143.801178 306.304128,147.504426 C306.304128,151.207675 309.319168,154.220162 313.024128,154.220162 C316.729728,154.220162 319.744128,151.207675 319.744128,147.504426 C319.744128,143.801178 316.729728,140.78869 313.024128,140.78869 M59.682048,247.084721 C58.446848,247.084721 57.442048,246.080558 57.442048,244.846142 C57.442048,243.612365 58.446848,242.607563 59.682048,242.607563 C60.916608,242.607563 61.922048,243.612365 61.922048,244.846142 C61.922048,246.080558 60.916608,247.084721 59.682048,247.084721 M59.682048,238.130406 C55.976448,238.130406 52.962048,241.142893 52.962048,244.846142 C52.962048,248.549391 55.976448,251.561878 59.682048,251.561878 C63.387008,251.561878 66.402048,248.549391 66.402048,244.846142 C66.402048,241.142893 63.387008,238.130406 59.682048,238.130406 M176.801408,58.7652487 L173.947008,58.7652487 L173.947008,55.9120203 C171.971328,53.6651269 169.467008,55.0351371 169.467008,56.9884569 L169.467008,58.7652487 L166.613248,58.7652487 C164.363648,60.7377563 165.733888,63.2424061 167.689088,63.2424061 L169.467008,63.2424061 L169.467008,66.0956345 C171.443328,68.3425279 173.947008,66.9725178 173.947008,65.019198 L173.947008,63.2424061 L175.725568,63.2424061 C177.680768,63.2424061 179.051008,60.7377563 176.801408,58.7652487" id="Fill-5" fill="#F8E296"></path>
                </g>
                <g id="logo" transform="translate(60.800000, 86.984772)">
                    <polygon id="_路径_" fill="#29A193" points="66.307531 10.8988174 5.00921379 10.8988174 5.52562759 5.97788873 66.8239448 5.97788873"></polygon>
                    <polygon id="_路径_2" fill="#29A193" points="131.42731 5.97788873 90.6306207 5.97788873 91.1298207 1.03963282 131.943724 1.03963282"></polygon>
                    <polygon id="_路径_3" fill="#29A193" points="158.625103 17.2752321 89.6494345 17.2752321 90.1658483 12.3543034 159.141517 12.3543034"></polygon>
                    <polygon id="_路径_4" fill="#29A193" points="177.697986 17.2752321 160.208772 17.2752321 160.725186 12.3543034 178.2144 12.3543034"></polygon>
                    <polygon id="_路径_5" fill="#29A193" points="198.268469 17.2752321 179.281655 17.2752321 179.798069 12.3543034 198.784883 12.3543034"></polygon>
                    <polygon id="_路径_6" fill="#29A193" points="129.516579 34.1865926 87.6009931 34.1865926 88.1174069 29.2656639 130.032993 29.2656639"></polygon>
                    <polygon id="_路径_7" fill="#29A193" points="61.1950345 27.2383799 7.31586207 27.2383799 7.83227586 22.3174512 61.7114483 22.3174512"></polygon>
                    <polygon id="_路径_8" fill="#29A193" points="84.9844966 21.4684178 68.9068138 21.4684178 69.4232276 16.5474891 85.5009103 16.5474891"></polygon>
                    <polygon id="_路径_9" fill="#29A193" points="63.1401931 43.785869 2.15172414 43.785869 2.66813793 38.8649403 63.6566069 38.8649403"></polygon>
                    <polygon id="_路径_10" fill="#29A193" points="83.4180414 61.9101345 46.2706759 61.9101345 46.7870897 56.9718786 83.9344552 56.9718786"></polygon>
                    <polygon id="_路径_11" fill="#29A193" points="27.9207724 16.5474891 12.7382069 16.5474891 14.4595862 0 29.6593655 0"></polygon>
                    <polygon id="_路径_12" fill="#29A193" points="57.1670069 16.5474891 41.9672276 16.5474891 43.7058207 0 58.8883862 0"></polygon>
                    <polygon id="_路径_13" fill="#29A193" points="86.0689655 13.2033368 72.3151448 13.2033368 73.6750345 0 87.446069 0"></polygon>
                    <polygon id="_路径_14" fill="#29A193" points="81.6794483 59.1204531 68.4936828 59.1204531 72.3151448 16.6341251 85.5009103 16.6341251"></polygon>
                    <polygon id="_路径_15" fill="#29A193" points="103.816386 34.1865926 90.6306207 34.1865926 98.6694621 4.76498377 111.855228 4.76498377"></polygon>
                    <polygon id="_路径_16" fill="#29A193" points="127.967338 33.3375592 114.781572 33.3375592 116.709517 15.1093303 129.895283 15.1093303"></polygon>
                    <polygon id="_路径_17" fill="#29A193" points="146.833655 78.4576236 137.245572 78.4576236 144.389297 5.99521594 153.977379 5.99521594"></polygon>
                    <polygon id="_路径_18" fill="#29A193" points="176.596303 31.1023486 168.884524 31.1023486 171.019034 12.3543034 178.748028 12.3543034"></polygon>
                    <polygon id="_路径_19" fill="#29A193" points="166.302455 31.1023486 158.590676 31.1023486 159.657931 18.2802105 167.36971 18.2802105"></polygon>
                    <polygon id="_路径_20" fill="#29A193" points="166.939366 66.2246108 174.651145 66.2246108 166.302455 31.1023486 158.590676 31.1023486"></polygon>
                    <polygon id="_路径_21" fill="#29A193" points="163.203972 66.2246108 155.492193 66.2246108 168.884524 31.1023486 176.596303 31.1023486"></polygon>
                    <polygon id="_路径_22" fill="#29A193" points="137.28 66.2246108 132.735559 66.2246108 137.400497 20.8619653 141.824441 20.8619653"></polygon>
                    <polygon id="_路径_23" fill="#29A193" points="154.287228 66.2246108 149.742786 66.2246108 153.082262 20.8619653 157.506207 20.8619653"></polygon>
                    <polygon id="_路径_24" fill="#29A193" points="182.121931 54.892613 175.942179 54.892613 178.2144 24.9858422 184.273655 24.9858422"></polygon>
                    <polygon id="_路径_25" fill="#29A193" points="21.052469 38.8649403 5.86990345 38.8649403 7.59128276 22.3174512 22.7910621 22.3174512"></polygon>
                    <polygon id="_路径_26" fill="#29A193" points="59.9728552 38.8649403 44.7902897 38.8649403 46.511669 22.3174512 61.7114483 22.3174512"></polygon>
                    <polygon id="_路径_27" fill="#29A193" points="40.5040552 41.3254047 25.3042759 41.3254047 27.7830621 18.3321921 42.9656276 18.3321921"></polygon>
                    <polygon id="_路径_28" fill="#29A193" points="19.0040276 61.9101345 0.688551724 61.9101345 20.5876966 42.9541628 38.2662621 42.9541628"></polygon>
                    <polygon id="_路径_29" fill="#29A193" points="42.9656276 61.9101345 61.2811034 61.9101345 44.6009379 42.9541628 26.9395862 42.9541628"></polygon>
                    <path d="M88.7371034,37.0282557 L86.7919448,61.2863548 L117.776772,61.2863548 C122.466484,61.2835491 126.368548,57.6573311 126.745159,52.9519651 L128.018979,36.9936012 L88.7371034,37.0282557 Z M114.041379,52.1202588 C114.041379,56.4174078 111.769159,56.677316 110.271559,56.677316 L100.3392,56.677316 L101.871228,41.7066034 L114.471724,41.7066034 L114.041379,52.1202588 Z" id="_复合路径_" fill="#29A193"></path>
                    <path d="M188.370538,5.99521594 L183.912166,55.7936281 L183.671172,58.0981475 C183.309683,60.9917922 182.448993,61.217046 180.228414,61.217046 L178.507034,61.217046 L178.507034,65.7394488 L188.163972,65.7394488 C190.748652,65.7409547 192.907029,63.7562971 193.138759,61.1650644 L197.958621,5.99521594 L188.370538,5.99521594 Z" id="_路径_30" fill="#29A193"></path>
                    <polygon id="_复合路径_2" fill="#F9BD2B" points="0 66.8657177 3.30504828 66.8657177 4.88871724 70.4871053 7.19536552 66.8657177 10.5004138 66.8657177 6.12811034 73.1208418 5.68055172 77.6259174 2.68535172 77.6259174 3.13291034 73.1208418"></polygon>
                    <polygon id="_复合路径_3" fill="#F9BD2B" points="11.5848828 66.8657177 14.5800828 66.8657177 13.4956138 77.6085902 10.5004138 77.6085902"></polygon>
                    <polygon id="_复合路径_4" fill="#F9BD2B" points="16.7318069 66.8657177 19.5204414 66.8657177 22.550069 72.7742975 23.1525517 66.8310632 25.9584 66.8310632 24.873931 77.5739357 22.0680828 77.5739357 19.0384552 71.6826831 18.4531862 77.5739357 15.6473379 77.5739357"></polygon>
                    <path d="M32.1037241,73.7272943 L32.3275034,71.4920837 L36.9408,71.4920837 L36.4932414,76.0664681 C35.732638,76.6340516 34.8986927,77.0945778 34.0144552,77.435318 C33.2249499,77.6904753 32.3991773,77.8134012 31.5700966,77.7991895 C30.614183,77.8455371 29.6648981,77.6171691 28.8331034,77.1407554 C28.1366548,76.6800915 27.6150454,75.9963103 27.3527172,75.2001074 C27.0334727,74.2475172 26.9334095,73.2343672 27.0600828,72.2371539 C27.148378,71.1549236 27.4778666,70.1066426 28.0240552,69.1702371 C28.5242747,68.3250256 29.2525123,67.6400576 30.1241379,67.1949347 C30.9680268,66.8173658 31.8866694,66.6395398 32.8094897,66.6751183 C33.6090473,66.6371261 34.4086698,66.7487533 35.1677793,67.0043354 C35.665431,67.2094702 36.0909707,67.5593846 36.3899586,68.0093138 C36.7225754,68.5330111 36.9343327,69.1251016 37.0096552,69.7420351 L34.0660966,70.3138332 C34.0119401,69.949376 33.828491,69.6169919 33.5496828,69.3781636 C33.2485908,69.1483845 32.877106,69.0319137 32.4996414,69.0489466 C31.8380418,69.0130247 31.1989302,69.2960866 30.7782621,69.811344 C30.2695851,70.5062839 29.98156,71.3398121 29.952,72.2024995 C29.7839238,73.049487 29.9052505,73.9287953 30.2962759,74.6976182 C30.6471613,75.2116501 31.2454185,75.4962057 31.862731,75.4426884 C32.1903658,75.4441274 32.5160154,75.391446 32.8267034,75.2867435 C33.2130305,75.1431699 33.5824829,74.9572265 33.9283862,74.7322727 L34.031669,73.7272943 L32.1037241,73.7272943 Z" id="_复合路径_5" fill="#F9BD2B"></path>
                    <polygon id="_复合路径_6" fill="#F9BD2B" points="38.2146207 66.8657177 41.519669 66.8657177 43.0344828 70.5044325 45.341131 66.8830449 48.7150345 66.8830449 44.3255172 73.1208418 43.8779586 77.6259174 40.8827586 77.6259174 41.3131034 73.1208418"></polygon>
                    <path d="M55.9448276,66.8657177 L58.9228138,66.8657177 L58.2859034,73.2594595 C58.2200288,73.8556472 58.069299,74.4391967 57.8383448,74.9921809 C57.6110471,75.5434862 57.2775753,76.0440453 56.8571586,76.464994 C56.491495,76.8454671 56.052063,77.1462497 55.5661241,77.3486819 C54.8680156,77.6424825 54.1194189,77.7955431 53.3627586,77.7991895 C52.8503658,77.7985251 52.338576,77.7637951 51.830731,77.6952262 C51.3582765,77.6456179 50.9011325,77.4981319 50.4880552,77.2620459 C49.7359786,76.7655349 49.214661,75.9846532 49.0420966,75.0961442 C48.9403196,74.5246049 48.9113965,73.9423307 48.9560276,73.3634228 L49.5929379,66.9696809 L52.5709241,66.9696809 L51.9168,73.5193677 C51.8309563,73.9966461 51.9361543,74.4887282 52.2094345,74.8882176 C52.4965025,75.2356219 52.9321825,75.4226509 53.3799724,75.3907068 C53.8468942,75.4073444 54.3004775,75.2322209 54.6365793,74.9055448 C54.9888455,74.5279968 55.1962881,74.0366807 55.2218483,73.5193677 L55.9448276,66.8657177 Z" id="_复合路径_7" fill="#F9BD2B"></path>
                    <path d="M59.6630069,74.0565113 L62.5204966,73.865912 C62.5043132,74.2744923 62.5932552,74.6803528 62.7787034,75.0441625 C63.0419574,75.4832674 63.526976,75.7374063 64.0353103,75.7025966 C64.4025208,75.7220877 64.7640205,75.6049055 65.0509241,75.3733796 C65.2873342,75.1487792 65.4186005,74.8341812 65.4124138,74.5070189 C65.4396836,74.2324895 65.3451958,73.9598397 65.1542069,73.7619487 C64.7255626,73.4348535 64.22268,73.2204646 63.6910345,73.138169 C62.7004016,72.9585132 61.7776116,72.5090598 61.0228966,71.838628 C60.5079865,71.2788218 60.2736612,70.5138403 60.3859862,69.7593623 C60.4456887,69.1977933 60.6471701,68.6609462 60.9712552,68.1999131 C61.3295988,67.6923117 61.8172004,67.2912804 62.3827862,67.0389898 C63.1479088,66.7306228 63.9692461,66.5888944 64.7927172,66.6231367 C65.7655999,66.5467374 66.7342529,66.8165585 67.5297103,67.3855341 C68.1800855,68.0225244 68.5145432,68.9181708 68.4420414,69.8286712 L65.6189793,70.0192706 C65.6307588,69.6343364 65.5021755,69.2583716 65.2574897,68.9623105 C64.9945207,68.7243091 64.6460739,68.6053071 64.2935172,68.6330935 C64.0037709,68.6146608 63.7169682,68.7006543 63.484469,68.8756744 C63.3023129,69.0207623 63.1847058,69.2326038 63.1574069,69.4647997 C63.1379122,69.6393891 63.2017725,69.8129478 63.3295448,69.9326345 C63.6121302,70.1455503 63.9438362,70.2826844 64.2935172,70.3311604 C65.232981,70.5245648 66.1420973,70.8451435 66.9960828,71.2841572 C67.4846553,71.5543505 67.8761751,71.9727023 68.1149793,72.4797349 C68.3284628,72.9817896 68.4056869,73.5318993 68.3387586,74.0738386 C68.2704829,74.7597449 68.0273776,75.4162762 67.6329931,75.9798321 C67.238457,76.5530266 66.6971734,77.0080663 66.0665379,77.2967003 C65.320433,77.6361074 64.5097511,77.8075905 63.6910345,77.7991895 C62.4884479,77.9542857 61.2791274,77.5675429 60.3859862,76.7422295 C59.8322467,75.9635055 59.5755984,75.0101105 59.6630069,74.0565113 Z" id="_复合路径_8" fill="#F9BD2B"></path>
                    <polygon id="_复合路径_9" fill="#F9BD2B" points="70.5765517 66.8657177 73.5545379 66.8657177 73.1758345 70.625723 76.4292414 70.625723 76.8079448 66.8657177 79.8031448 66.8657177 78.7186759 77.6085902 75.7406897 77.6085902 76.1710345 73.2594595 73.0036966 73.2594595 72.5733517 77.6085902 69.5781517 77.6085902"></polygon>
                    <path d="M88.1518345,66.8657177 L91.1298207,66.8657177 L90.4929103,73.2594595 C90.4270357,73.8556472 90.2763059,74.4391967 90.0453517,74.9921809 C89.818054,75.5434862 89.4845822,76.0440453 89.0641655,76.464994 C88.6985019,76.8454671 88.2590699,77.1462497 87.773131,77.3486819 C87.0961267,77.6019786 86.3779799,77.7253969 85.6558345,77.7125534 C85.1434417,77.7118891 84.6316519,77.6771591 84.1238069,77.6085902 C83.6513523,77.5589818 83.1942083,77.4114959 82.781131,77.1754098 C82.0290544,76.6788989 81.5077369,75.8980172 81.3351724,75.0095081 C81.2333955,74.4379688 81.2044723,73.8556946 81.2491034,73.2767867 L81.8860138,66.8830449 L84.864,66.8830449 L84.2098759,73.4327316 C84.1240322,73.9100101 84.2292301,74.4020921 84.5025103,74.8015815 C84.7895783,75.1489859 85.2252583,75.3360148 85.6730483,75.3040707 C86.13997,75.3207083 86.5935534,75.1455848 86.9296552,74.8189087 C87.2819214,74.4413607 87.4893639,73.9500446 87.5149241,73.4327316 L88.1518345,66.8657177 Z" id="_复合路径_10" fill="#F9BD2B"></path>
                    <polygon id="_复合路径_11" fill="#F9BD2B" points="91.6978759 74.6283094 94.5553655 74.6283094 94.262731 77.6259174 91.4052414 77.6259174"></polygon>
                    <path d="M102.938483,73.2248051 L105.46891,74.108493 C105.25132,74.8477007 104.901288,75.5406318 104.436083,76.1531042 C104.027094,76.6772212 103.502599,77.098396 102.904055,77.3833364 C102.214011,77.6801939 101.467982,77.8221046 100.717903,77.7991895 C99.8233982,77.8525836 98.9298367,77.6798418 98.1186207,77.2967003 C97.4305809,76.9017918 96.8873102,76.2941803 96.5693793,75.5639789 C96.1486533,74.5276943 96.0119254,73.3967445 96.1734621,72.2891355 C96.2551925,70.7655296 96.8642046,69.3187909 97.8948414,68.1999131 C98.8951778,67.2201633 100.25308,66.6997575 101.647448,66.7617544 C102.643616,66.6908774 103.632279,66.9796016 104.436083,67.5761334 C105.136881,68.2421233 105.592101,69.1280155 105.727117,70.0885794 L103.024552,70.7470135 C102.987304,70.4998907 102.911794,70.2601745 102.800772,70.0365978 C102.672516,69.7943778 102.482358,69.591004 102.249931,69.4474725 C102.009935,69.3063531 101.735994,69.2344192 101.458097,69.2395459 C100.765035,69.2062062 100.107633,69.5503077 99.7367172,70.140561 C99.3594583,70.7826856 99.1465205,71.5090629 99.1170207,72.2544811 C98.9501657,73.0746586 99.0341903,73.9264816 99.3580138,74.6976182 C99.6409663,75.1421802 100.143169,75.394936 100.666262,75.3560524 C101.170423,75.3838854 101.661302,75.1875071 102.008938,74.8189087 C102.441257,74.3702294 102.760065,73.8234958 102.938483,73.2248051 Z" id="_复合路径_12" fill="#F9BD2B"></path>
                    <path d="M106.725517,72.2544811 C106.804355,70.730203 107.413768,69.2825122 108.446897,68.1652587 C109.464896,67.1655878 110.847405,66.6327612 112.268359,66.6924455 C113.614088,66.5851918 114.932279,67.1172243 115.831614,68.1306043 C116.655249,69.3013046 116.977718,70.7557347 116.726731,72.167845 C116.652174,73.246515 116.353065,74.2973409 115.848828,75.2520891 C115.410452,76.0291351 114.7748,76.6749553 114.006952,77.1234282 C113.165268,77.5921139 112.214281,77.8254443 111.252745,77.7991895 C110.334871,77.8422728 109.421563,77.6452744 108.601821,77.2273914 C107.896689,76.8058256 107.351479,76.1594587 107.052579,75.3907068 C106.680755,74.3902149 106.568196,73.3108846 106.725517,72.2544811 L106.725517,72.2544811 Z M109.703503,72.2544811 C109.548384,73.0472867 109.657289,73.8694562 110.013352,74.593655 C110.324788,75.0663798 110.862317,75.3369154 111.424883,75.3040707 C112.024874,75.3264192 112.602014,75.0710597 112.991338,74.6109822 C113.481583,73.8711011 113.750445,73.0050755 113.765959,72.1158634 C113.912319,71.3606786 113.796872,70.5778092 113.438897,69.8979801 C113.115495,69.431743 112.573942,69.1690341 112.010152,69.2048915 C111.424735,69.2001714 110.86834,69.4611086 110.495338,69.9153073 C110.00259,70.6031004 109.7267,71.4241502 109.703503,72.2718083 L109.703503,72.2544811 Z" id="_复合路径_13" fill="#F9BD2B"></path>
                    <polygon id="_复合路径_14" fill="#F9BD2B" points="118.775172 66.8657177 122.699917 66.8657177 123.560607 73.3980772 125.712331 66.8657177 129.637076 66.8657177 128.552607 77.6085902 126.177103 77.6085902 127.003366 69.4128181 124.283586 77.6085902 122.080221 77.6085902 121.030179 69.4128181 120.203917 77.6085902 117.759559 77.6085902"></polygon>
                </g>
            </g>
        </g>
    </g>
</svg>