<?xml version="1.0" encoding="UTF-8" standalone="no"?>
<svg width="98px" height="209px" viewBox="0 0 98 209" version="1.1" xmlns="http://www.w3.org/2000/svg" xmlns:xlink="http://www.w3.org/1999/xlink">
    <!-- Generator: Sketch 46.1 (44463) - http://www.bohemiancoding.com/sketch -->
    <title>main_icon</title>
    <desc>Created with Sketch.</desc>
    <defs></defs>
    <g id="一级" stroke="none" stroke-width="1" fill="none" fill-rule="evenodd">
        <g id="切图" transform="translate(-128.000000, -334.000000)">
            <g id="main_icon" transform="translate(128.000000, 334.000000)">
                <g id="Icon/class1" transform="translate(1.000000, 189.000000)" fill-rule="nonzero" fill="#FFFFFF">
                    <path d="M9.60000002,11.8 C9.53333336,11.8 9.40000002,11.8666667 9.33333334,11.9333333 C9.26666669,12 9.20000001,12.0666666 9.20000001,12.2 C9.20000001,12.2666666 9.26666666,12.4 9.33333334,12.4666667 C9.4,12.5333333 9.46666668,12.6 9.60000002,12.6 C9.66666667,12.6 9.80000001,12.5333333 9.86666669,12.4666667 C10,12.3333333 10,12.1333333 9.86666669,11.9333333 C9.80000003,11.8666667 9.6666667,11.8 9.60000002,11.8 L9.60000002,11.8 Z M7.73333334,11.8 L6.53333334,11.8 C5.46666667,11.8 4.66666668,11.1333333 4.66666668,10.5333333 L4.66666668,4.33333333 C4.66666668,4.13333334 4.53333334,4 4.33333335,4 C4.13333336,4 4.00000002,4.13333334 4,4.33333333 L4,10.5333333 C4,11.6 5.06666666,12.5333333 6.60000002,12.5333333 L7.80000002,12.5333333 C8.00000001,12.5333333 8.13333334,12.4 8.13333334,12.2 C8.06666669,11.9333333 7.93333335,11.8 7.73333334,11.8 Z M3,1 C1.8954305,1 1,1.8954305 1,3 L1,13 C1,14.1045695 1.8954305,15 3,15 L21,15 C22.1045695,15 23,14.1045695 23,13 L23,3 C23,1.8954305 22.1045695,1 21,1 L3,1 Z M3,0 L21,0 C22.6568542,0 24,1.34314575 24,3 L24,13 C24,14.6568542 22.6568542,16 21,16 L3,16 C1.34314575,16 0,14.6568542 0,13 L0,3 C0,1.34314575 1.34314575,0 3,0 Z M2.5,19 L21.5,19 C21.7761424,19 22,19.2238576 22,19.5 C22,19.7761424 21.7761424,20 21.5,20 L2.5,20 C2.22385763,20 2,19.7761424 2,19.5 C2,19.2238576 2.22385763,19 2.5,19 Z M12,16 L13,16 L13,19 L12,19 L12,16 Z" id="微课"></path>
                </g>
                <g id="Icon/class2" transform="translate(74.000000, 189.000000)" fill-rule="nonzero" fill="#A2B7D8">
                    <path d="M9.60000002,11.8 C9.53333336,11.8 9.40000002,11.8666667 9.33333334,11.9333333 C9.26666669,12 9.20000001,12.0666666 9.20000001,12.2 C9.20000001,12.2666666 9.26666666,12.4 9.33333334,12.4666667 C9.4,12.5333333 9.46666668,12.6 9.60000002,12.6 C9.66666667,12.6 9.80000001,12.5333333 9.86666669,12.4666667 C10,12.3333333 10,12.1333333 9.86666669,11.9333333 C9.80000003,11.8666667 9.6666667,11.8 9.60000002,11.8 L9.60000002,11.8 Z M7.73333334,11.8 L6.53333334,11.8 C5.46666667,11.8 4.66666668,11.1333333 4.66666668,10.5333333 L4.66666668,4.33333333 C4.66666668,4.13333334 4.53333334,4 4.33333335,4 C4.13333336,4 4.00000002,4.13333334 4,4.33333333 L4,10.5333333 C4,11.6 5.06666666,12.5333333 6.60000002,12.5333333 L7.80000002,12.5333333 C8.00000001,12.5333333 8.13333334,12.4 8.13333334,12.2 C8.06666669,11.9333333 7.93333335,11.8 7.73333334,11.8 Z M3,1 C1.8954305,1 1,1.8954305 1,3 L1,13 C1,14.1045695 1.8954305,15 3,15 L21,15 C22.1045695,15 23,14.1045695 23,13 L23,3 C23,1.8954305 22.1045695,1 21,1 L3,1 Z M3,0 L21,0 C22.6568542,0 24,1.34314575 24,3 L24,13 C24,14.6568542 22.6568542,16 21,16 L3,16 C1.34314575,16 0,14.6568542 0,13 L0,3 C0,1.34314575 1.34314575,0 3,0 Z M2.5,19 L21.5,19 C21.7761424,19 22,19.2238576 22,19.5 C22,19.7761424 21.7761424,20 21.5,20 L2.5,20 C2.22385763,20 2,19.7761424 2,19.5 C2,19.2238576 2.22385763,19 2.5,19 Z M12,16 L13,16 L13,19 L12,19 L12,16 Z" id="微课"></path>
                </g>
                <g id="Icon/course1" transform="translate(0.000000, 63.000000)" fill="#FFFFFF">
                    <path d="M23.0768725,0 L16.3460906,0 C14.7751115,0 13.3779881,0.753445693 12.5,1.91609908 C11.6220119,0.753445693 10.2247242,0 8.65374503,0 L1.92312748,0 C0.862968786,0 0,0.858044607 0,1.9132871 L0,19.610874 C0,20.6656261 0.862048567,21.5241938 1.92312748,21.5241938 L8.99192573,21.5241938 C9.93547946,22.4416496 11.1910534,22.9591837 12.5,22.9591837 C13.8089466,22.9591837 15.0643562,22.4416496 16.0080743,21.5241938 L23.0768725,21.5241938 C24.1370312,21.5241938 25,20.6666397 25,19.610874 L25,1.9132871 C25,0.858567765 24.13805,0 23.0768725,0 Z M23.9795918,19.431383 C23.9795918,19.9506228 23.5567582,20.3714873 23.035089,20.3714873 L15.8635467,20.3714873 C15.5591807,20.3714873 15.2699605,20.5042099 15.0715137,20.7367514 C14.4187273,21.5000825 13.4850188,21.9387755 12.5106293,21.9387755 C11.536206,21.9387755 10.6024975,21.5000825 9.94987976,20.7367514 C9.75129805,20.5042099 9.46221273,20.3714873 9.15767804,20.3714873 L1.98616947,20.3714873 C1.46450033,20.3714873 1.04166667,19.9506228 1.04166667,19.431383 L1.04166667,1.98177099 C1.04166667,1.46253122 1.46450033,1.04166667 1.98616947,1.04166667 L8.34007594,1.04166667 C10.0649067,1.04166667 11.9777778,2.44772698 11.9777778,4.17620949 L11.9777778,13.0574757 C11.9777778,13.7473958 12.9931424,13.8023437 13.0270833,13.0574757 L13.0270833,4.17620949 C13.0270833,2.44762625 14.9563518,1.04166667 16.6811488,1.04166667 L23.035089,1.04166667 C23.5567582,1.04166667 23.9795918,1.46253122 23.9795918,1.98177099 L23.9795918,19.431383 Z" id="课程"></path>
                </g>
                <g id="Icon/course2" transform="translate(73.000000, 63.000000)" fill="#A2B7D8">
                    <path d="M23.0768725,0 L16.3460906,0 C14.7751115,0 13.3779881,0.753445693 12.5,1.91609908 C11.6220119,0.753445693 10.2247242,0 8.65374503,0 L1.92312748,0 C0.862968786,0 0,0.858044607 0,1.9132871 L0,19.610874 C0,20.6656261 0.862048567,21.5241938 1.92312748,21.5241938 L8.99192573,21.5241938 C9.93547946,22.4416496 11.1910534,22.9591837 12.5,22.9591837 C13.8089466,22.9591837 15.0643562,22.4416496 16.0080743,21.5241938 L23.0768725,21.5241938 C24.1370312,21.5241938 25,20.6666397 25,19.610874 L25,1.9132871 C25,0.858567765 24.13805,0 23.0768725,0 Z M23.9795918,19.431383 C23.9795918,19.9506228 23.5567582,20.3714873 23.035089,20.3714873 L15.8635467,20.3714873 C15.5591807,20.3714873 15.2699605,20.5042099 15.0715137,20.7367514 C14.4187273,21.5000825 13.4850188,21.9387755 12.5106293,21.9387755 C11.536206,21.9387755 10.6024975,21.5000825 9.94987976,20.7367514 C9.75129805,20.5042099 9.46221273,20.3714873 9.15767804,20.3714873 L1.98616947,20.3714873 C1.46450033,20.3714873 1.04166667,19.9506228 1.04166667,19.431383 L1.04166667,1.98177099 C1.04166667,1.46253122 1.46450033,1.04166667 1.98616947,1.04166667 L8.34007594,1.04166667 C10.0649067,1.04166667 11.9777778,2.44772698 11.9777778,4.17620949 L11.9777778,13.0574757 C11.9777778,13.7473958 12.9931424,13.8023437 13.0270833,13.0574757 L13.0270833,4.17620949 C13.0270833,2.44762625 14.9563518,1.04166667 16.6811488,1.04166667 L23.035089,1.04166667 C23.5567582,1.04166667 23.9795918,1.46253122 23.9795918,1.98177099 L23.9795918,19.431383 Z" id="课程"></path>
                </g>
                <g id="Icon/home1" transform="translate(1.000000, 0.000000)" fill="#FFFFFF">
                    <g id="home">
                        <path d="M11.7555918,0.979591837 C12.4466939,0.979591837 13.0883265,1.21126531 13.5629388,1.6324898 L22.058449,9.17093878 C22.2470204,9.33844898 22.365551,9.47706122 22.4370612,9.57844898 C22.3067755,9.61077551 22.1069388,9.64016327 21.8233469,9.64016327 L20.6958367,9.64016327 L19.7162449,9.64016327 L19.7162449,10.6197551 L19.7162449,22.5306122 L3.79542857,22.5306122 L3.79542857,10.6197551 L3.79542857,9.64016327 L2.81583673,9.64016327 L1.68685714,9.64016327 C1.40277551,9.64016327 1.20293878,9.61077551 1.07265306,9.57844898 C1.14416327,9.47706122 1.26318367,9.33844898 1.45126531,9.17142857 L9.94971429,1.632 C10.4233469,1.21126531 11.0649796,0.979591837 11.7555918,0.979591837 L11.7555918,0.979591837 Z M11.7555918,0 C10.8646531,0 9.97420408,0.299755102 9.29926531,0.899265306 L0.801795918,8.43820408 C-0.54955102,9.63771429 -0.150857143,10.6197551 1.68734694,10.6197551 L2.81632653,10.6197551 L2.81632653,23.5102041 L20.6968163,23.5102041 L20.6968163,10.6197551 L21.8243265,10.6197551 C23.6625306,10.6197551 24.0597551,9.63771429 22.7098776,8.43820408 L14.2133878,0.899265306 C13.5374694,0.299755102 12.6465306,0 11.7555918,0 L11.7555918,0 Z" id="Shape" fill-rule="nonzero"></path>
                        <path d="M14.7232653,13.1343673 L14.7232653,22.5306122 L8.78791837,22.5306122 L8.78791837,13.1343673 L14.7232653,13.1343673 L14.7232653,13.1343673 Z M15.2130612,12.1547755 L8.29812245,12.1547755 C8.02873469,12.1547755 7.80832653,12.3751837 7.80832653,12.6445714 L7.80832653,23.0204082 C7.80832653,23.2897959 8.02873469,23.5102041 8.29812245,23.5102041 L15.2130612,23.5102041 C15.482449,23.5102041 15.7028571,23.2897959 15.7028571,23.0204082 L15.7028571,12.6445714 C15.7028571,12.3756735 15.4819592,12.1547755 15.2130612,12.1547755 L15.2130612,12.1547755 Z" id="Shape" fill-rule="nonzero"></path>
                    </g>
                </g>
                <g id="Icon/work1" transform="translate(1.000000, 125.000000)" fill="#FFFFFF">
                    <path d="M23.3824,7.47527273 L15.2849455,15.5724364 L9.37330909,17.7736 L11.5973091,11.8850909 L19.6941818,3.78778182 C20.5090909,2.97330909 21.8301091,2.97330909 22.6448727,3.78778182 L23.3824,4.52527273 C24.1967273,5.33978182 24.1967273,6.66065455 23.3824,7.47527273 Z M11.1637818,15.9811273 L14.7125091,14.6598182 L14.9110909,14.4612364 L12.6987273,12.2485818 L12.4981455,12.4493091 L11.1637818,15.9811273 Z M13.4362182,11.5112364 L15.6485818,13.7237091 L21.1644727,8.20752727 L18.9517091,5.99530909 L13.4362182,11.5112364 Z M22.6490182,5.24814545 L21.9116364,4.5108 C21.5051273,4.1044 20.8430545,4.10410909 20.4368,4.5108 L19.6896364,5.25781818 L21.9018545,7.47018182 L22.6490182,6.72330909 C23.0553818,6.31661818 23.0553818,5.65483636 22.6490182,5.24814545 Z M3.65043636,18.2998545 L3.65043636,17.2569818 L8.77785455,17.2569818 L8.38421818,18.2998545 L3.65043636,18.2998545 Z M9.56578182,15.1708727 L3.65043636,15.1708727 L3.65043636,14.1278545 L9.95992727,14.1278545 L9.56578182,15.1708727 Z M3.65043636,8.91294545 L8.86549091,8.91294545 L8.86549091,7.86989091 L3.65043636,7.86989091 L3.65043636,8.91294545 Z M3.65043636,12.0418909 L8.86549091,12.0418909 L8.86549091,10.9988727 L3.65043636,10.9988727 L3.65043636,12.0418909 Z M15.1234545,17.2569818 L15.1234545,18.3 L10.0535636,18.3 L12.8556727,17.2569818 L15.1234545,17.2569818 Z M12.5159273,1.95669091 L12.5159273,5.78396364 C12.5159273,6.35996364 12.9829455,6.82698182 13.5589455,6.82698182 L15.1758545,6.82698182 L14.1329455,7.87003636 L13.5589455,7.87003636 C12.4069455,7.87003636 11.4728727,6.93592727 11.4728727,5.78396364 L11.4728727,1.09047273 L2.08592727,1.09047273 C1.50992727,1.09047273 1.04305455,1.55752727 1.04305455,2.13352727 L1.04305455,21.9504364 C1.04305455,22.5264364 1.50992727,22.9934545 2.08592727,22.9934545 L16.6879273,22.9934545 C17.2639273,22.9934545 17.7309818,22.5264364 17.7309818,21.9504364 L17.7309818,14.5977455 L18.7738545,13.5545455 L18.7738545,21.9504364 C18.7738545,23.1024364 17.8399273,24.0363636 16.6879273,24.0363636 L2.08592727,24.0363636 C0.934109091,24.0363636 0,23.1024364 0,21.9504364 L0,2.13338182 C0,0.981527273 0.933963636,0.0474545455 2.08592727,0.0474545455 L12.1843636,0.0474545455 L16.8890545,5.11421818 L16.1598182,5.84345455 L12.5159273,1.95669091 Z" id="作业"></path>
                </g>
                <g id="Icon/work2" transform="translate(74.000000, 125.000000)" fill="#A2B7D8">
                    <path d="M23.3824,7.47527273 L15.2849455,15.5724364 L9.37330909,17.7736 L11.5973091,11.8850909 L19.6941818,3.78778182 C20.5090909,2.97330909 21.8301091,2.97330909 22.6448727,3.78778182 L23.3824,4.52527273 C24.1967273,5.33978182 24.1967273,6.66065455 23.3824,7.47527273 Z M11.1637818,15.9811273 L14.7125091,14.6598182 L14.9110909,14.4612364 L12.6987273,12.2485818 L12.4981455,12.4493091 L11.1637818,15.9811273 Z M13.4362182,11.5112364 L15.6485818,13.7237091 L21.1644727,8.20752727 L18.9517091,5.99530909 L13.4362182,11.5112364 Z M22.6490182,5.24814545 L21.9116364,4.5108 C21.5051273,4.1044 20.8430545,4.10410909 20.4368,4.5108 L19.6896364,5.25781818 L21.9018545,7.47018182 L22.6490182,6.72330909 C23.0553818,6.31661818 23.0553818,5.65483636 22.6490182,5.24814545 Z M3.65043636,18.2998545 L3.65043636,17.2569818 L8.77785455,17.2569818 L8.38421818,18.2998545 L3.65043636,18.2998545 Z M9.56578182,15.1708727 L3.65043636,15.1708727 L3.65043636,14.1278545 L9.95992727,14.1278545 L9.56578182,15.1708727 Z M3.65043636,8.91294545 L8.86549091,8.91294545 L8.86549091,7.86989091 L3.65043636,7.86989091 L3.65043636,8.91294545 Z M3.65043636,12.0418909 L8.86549091,12.0418909 L8.86549091,10.9988727 L3.65043636,10.9988727 L3.65043636,12.0418909 Z M15.1234545,17.2569818 L15.1234545,18.3 L10.0535636,18.3 L12.8556727,17.2569818 L15.1234545,17.2569818 Z M12.5159273,1.95669091 L12.5159273,5.78396364 C12.5159273,6.35996364 12.9829455,6.82698182 13.5589455,6.82698182 L15.1758545,6.82698182 L14.1329455,7.87003636 L13.5589455,7.87003636 C12.4069455,7.87003636 11.4728727,6.93592727 11.4728727,5.78396364 L11.4728727,1.09047273 L2.08592727,1.09047273 C1.50992727,1.09047273 1.04305455,1.55752727 1.04305455,2.13352727 L1.04305455,21.9504364 C1.04305455,22.5264364 1.50992727,22.9934545 2.08592727,22.9934545 L16.6879273,22.9934545 C17.2639273,22.9934545 17.7309818,22.5264364 17.7309818,21.9504364 L17.7309818,14.5977455 L18.7738545,13.5545455 L18.7738545,21.9504364 C18.7738545,23.1024364 17.8399273,24.0363636 16.6879273,24.0363636 L2.08592727,24.0363636 C0.934109091,24.0363636 0,23.1024364 0,21.9504364 L0,2.13338182 C0,0.981527273 0.933963636,0.0474545455 2.08592727,0.0474545455 L12.1843636,0.0474545455 L16.8890545,5.11421818 L16.1598182,5.84345455 L12.5159273,1.95669091 Z" id="作业"></path>
                </g>
                <g id="Icon/home2" transform="translate(74.000000, 0.000000)" fill="#A2B7D8">
                    <g id="home">
                        <path d="M11.7555918,0.979591837 C12.4466939,0.979591837 13.0883265,1.21126531 13.5629388,1.6324898 L22.058449,9.17093878 C22.2470204,9.33844898 22.365551,9.47706122 22.4370612,9.57844898 C22.3067755,9.61077551 22.1069388,9.64016327 21.8233469,9.64016327 L20.6958367,9.64016327 L19.7162449,9.64016327 L19.7162449,10.6197551 L19.7162449,22.5306122 L3.79542857,22.5306122 L3.79542857,10.6197551 L3.79542857,9.64016327 L2.81583673,9.64016327 L1.68685714,9.64016327 C1.40277551,9.64016327 1.20293878,9.61077551 1.07265306,9.57844898 C1.14416327,9.47706122 1.26318367,9.33844898 1.45126531,9.17142857 L9.94971429,1.632 C10.4233469,1.21126531 11.0649796,0.979591837 11.7555918,0.979591837 L11.7555918,0.979591837 Z M11.7555918,0 C10.8646531,0 9.97420408,0.299755102 9.29926531,0.899265306 L0.801795918,8.43820408 C-0.54955102,9.63771429 -0.150857143,10.6197551 1.68734694,10.6197551 L2.81632653,10.6197551 L2.81632653,23.5102041 L20.6968163,23.5102041 L20.6968163,10.6197551 L21.8243265,10.6197551 C23.6625306,10.6197551 24.0597551,9.63771429 22.7098776,8.43820408 L14.2133878,0.899265306 C13.5374694,0.299755102 12.6465306,0 11.7555918,0 L11.7555918,0 Z" id="Shape" fill-rule="nonzero"></path>
                        <path d="M14.7232653,13.1343673 L14.7232653,22.5306122 L8.78791837,22.5306122 L8.78791837,13.1343673 L14.7232653,13.1343673 L14.7232653,13.1343673 Z M15.2130612,12.1547755 L8.29812245,12.1547755 C8.02873469,12.1547755 7.80832653,12.3751837 7.80832653,12.6445714 L7.80832653,23.0204082 C7.80832653,23.2897959 8.02873469,23.5102041 8.29812245,23.5102041 L15.2130612,23.5102041 C15.482449,23.5102041 15.7028571,23.2897959 15.7028571,23.0204082 L15.7028571,12.6445714 C15.7028571,12.3756735 15.4819592,12.1547755 15.2130612,12.1547755 L15.2130612,12.1547755 Z" id="Shape" fill-rule="nonzero"></path>
                    </g>
                </g>
            </g>
        </g>
    </g>
</svg>