<?xml version="1.0" encoding="UTF-8" standalone="no"?>
<svg width="32px" height="82px" viewBox="0 0 32 82" version="1.1" xmlns="http://www.w3.org/2000/svg" xmlns:xlink="http://www.w3.org/1999/xlink">
    <!-- Generator: Sketch 46.2 (44496) - http://www.bohemiancoding.com/sketch -->
    <title>pay</title>
    <desc>Created with Sketch.</desc>
    <defs></defs>
    <g id="Z1、切图" stroke="none" stroke-width="1" fill="none" fill-rule="evenodd">
        <g id="切图" transform="translate(-822.000000, -73.000000)">
            <g id="pay" transform="translate(822.000000, 73.000000)">
                <g id="支付宝" fill="#5BB0FB">
                    <path d="M26.4076098,20.6266537 C30.9400976,22.1738927 31.9687415,22.2569756 31.9687415,22.2569756 L31.9687415,5.84386341 C31.9687415,2.63336585 29.3666341,0.0312195122 26.1560976,0.0312195122 L5.8126439,0.0312195122 C2.60214634,0.0312195122 0,2.63336585 0,5.84386341 L0,26.1877854 C0,29.3978537 2.60214634,31.999961 5.8126439,31.999961 L26.1565659,31.999961 C29.0286439,31.999961 31.407922,29.9149268 31.8785171,27.1774049 C30.9795902,26.7947707 23.528039,23.6124878 19.6466341,21.710322 C16.8739512,25.1882146 13.2966634,27.2983024 9.58353171,27.2987317 C3.30321951,27.2987317 1.17057561,21.6961561 4.14419512,18.008039 C4.79254634,17.2045268 5.89588293,16.4364098 7.60760976,16.0062049 C10.2846049,15.3353366 14.547239,16.4241951 18.5409951,17.7682732 C19.2859707,16.3626146 19.8803512,14.8823024 20.3143415,13.3518049 L8.00487805,13.3518049 L8.00487805,12.0796878 L14.3516878,12.0796878 L14.3516878,9.80195122 L6.66446829,9.80195122 L6.66446829,8.52967805 L14.3516878,8.52967805 L14.3516878,5.2801561 C14.3516878,5.2801561 14.3516878,4.73303415 14.896039,4.73303415 L17.998478,4.73303415 L17.998478,8.52967805 L25.598478,8.52967805 L25.598478,9.80195122 L17.9980098,9.80195122 L17.9980098,12.0796878 L24.2023024,12.0801561 C23.6085463,14.5591024 22.7062634,16.8411317 21.5751415,18.8448 C23.4585366,19.5393171 25.1481756,20.1964488 26.4076098,20.6266537 Z" id="Fill-1"></path>
                    <path d="M8.36414584,18.0982838 C7.56925747,18.1791862 6.07832942,18.5382869 5.26314318,19.2748662 C2.8182545,21.4530653 4.28115967,25.4354232 9.22678574,25.4358974 C12.1013587,25.4358974 14.9745128,23.556725 17.2307692,20.5489899 C14.0214981,18.9467906 11.3022925,17.8012729 8.36414584,18.0982838 Z" id="Fill-4"></path>
                </g>
                <g id="微信" transform="translate(0.000000, 50.000000)" fill="#59DF95">
                    <path d="M24.4699486,0 L7.53005141,0 C3.37123676,0 0,3.37123676 0,7.53005141 L0,24.4699486 C0,28.6287632 3.37123676,32 7.53005141,32 L24.4699486,32 C28.6287632,32 32,28.6287632 32,24.4699486 L32,7.53005141 C32,5.53300857 31.2066946,3.61764538 29.7944416,2.20555841 C28.3823546,0.793305422 26.4669914,0 24.4699486,0 Z M16.000083,24.5349852 C14.8449466,24.5364378 13.6953303,24.3777269 12.583939,24.0630444 C12.2660192,24.1210669 11.955072,24.212998 11.6580702,24.3399169 L9.56096144,25.6560469 C8.94101778,26.0720819 8.73802224,25.9149896 8.95591768,25.1860568 L9.42204791,23.5409669 C9.45363237,23.2160745 9.42445513,22.8882767 9.33592733,22.5740922 C6.80697058,20.8870005 5.17599207,18.2639959 5.17599207,15.3269314 C5.17599207,10.2550311 10.0389203,6.11696835 16.000083,6.11696835 C19.6360316,6.11696835 22.8639554,7.65701182 24.8279197,10.0079584 L14.7390702,14.8000394 C14.044046,15.2179836 13.3490218,15.3060134 12.6530015,14.668057 L11.0439371,13.2209408 C10.3099822,13.0020908 10.0489642,13.2360067 10.2620037,13.9229376 L11.9999792,18.1759661 C12.3900328,18.8150431 12.9680161,19.0279166 13.9569708,18.3079485 L25.6599482,11.1799453 C26.4167302,12.4309142 26.8188199,13.8640851 26.8230118,15.3259768 C26.8230118,20.3989977 21.9610797,24.5359398 16.000083,24.5359398 L16.000083,24.5349852 Z" id="Fill-1"></path>
                </g>
            </g>
        </g>
    </g>
</svg>