<?xml version="1.0" encoding="UTF-8" standalone="no"?>
<svg width="15px" height="15px" viewBox="0 0 15 15" version="1.1" xmlns="http://www.w3.org/2000/svg" xmlns:xlink="http://www.w3.org/1999/xlink">
    <!-- Generator: Sketch 46.2 (44496) - http://www.bohemiancoding.com/sketch -->
    <title>Plus Icon</title>
    <desc>Created with Sketch.</desc>
    <defs></defs>
    <g id="B、一级导航" stroke="none" stroke-width="1" fill="none" fill-rule="evenodd">
        <g id="【学生端】微课-课程" transform="translate(-920.000000, -37.000000)" fill-rule="nonzero" fill="#5591E6">
            <g id="Icons/Plus-Icon" transform="translate(920.000000, 37.000000)">
                <path d="M0.9375,8.4375 C0.419733047,8.4375 0,8.01776695 0,7.5 C0,6.98223305 0.419733047,6.5625 0.9375,6.5625 L6.5625,6.5625 L6.5625,0.9375 C6.5625,0.419733047 6.98223305,0 7.5,0 C8.01776695,0 8.4375,0.419733047 8.4375,0.9375 L8.4375,6.5625 L14.0625,6.5625 C14.580267,6.5625 15,6.98223305 15,7.5 C15,8.01776695 14.580267,8.4375 14.0625,8.4375 L8.4375,8.4375 L8.4375,14.0625 C8.4375,14.580267 8.01776695,15 7.5,15 C6.98223305,15 6.5625,14.580267 6.5625,14.0625 L6.5625,8.4375 L0.9375,8.4375 Z" id="Plus-Icon"></path>
            </g>
        </g>
    </g>
</svg>