<?xml version="1.0" encoding="UTF-8" standalone="no"?>
<svg width="16px" height="124px" viewBox="0 0 16 124" version="1.1" xmlns="http://www.w3.org/2000/svg" xmlns:xlink="http://www.w3.org/1999/xlink">
    <!-- Generator: Sketch 46.1 (44463) - http://www.bohemiancoding.com/sketch -->
    <title>small_icon</title>
    <desc>Created with Sketch.</desc>
    <defs></defs>
    <g id="一级" stroke="none" stroke-width="1" fill="none" fill-rule="evenodd">
        <g id="切图" transform="translate(-52.000000, -363.000000)">
            <g id="small_icon" transform="translate(52.000000, 363.000000)">
                <path d="M1,6 L3,6 L3,12 L1,12 L1,6 Z M5,0 L7,0 L7,12 L5,12 L5,0 Z M9,3 L11,3 L11,12 L9,12 L9,3 Z M13,6 L15,6 L15,12 L13,12 L13,6 Z" id="Combined-Shape" fill="#59C22D"></path>
                <path d="M8.46555833,37.7483871 C8.46555833,37.4063269 8.18803042,37.1290323 7.84568239,37.1290323 C7.50333436,37.1290323 7.22580645,37.4063269 7.22580645,37.7483871 L7.22580645,41.4073346 C7.22580645,41.7493948 7.50333436,42.0266894 7.84568239,42.0266894 L10.9310919,42.0266894 C11.2734399,42.0266894 11.5509678,41.7493948 11.5509678,41.4073346 C11.5509678,41.0652743 11.2734399,40.7879797 10.9310919,40.7879797 L8.46555833,40.7879797 L8.46555833,37.7483871 Z M8,49 C3.581722,49 0,45.418278 0,41 C0,36.581722 3.581722,33 8,33 C12.418278,33 16,36.581722 16,41 C16,45.418278 12.418278,49 8,49 Z M8,47.4516129 C11.5631274,47.4516129 14.4516129,44.5631274 14.4516129,41 C14.4516129,37.4368726 11.5631274,34.5483871 8,34.5483871 C4.43687258,34.5483871 1.5483871,37.4368726 1.5483871,41 C1.5483871,44.5631274 4.43687258,47.4516129 8,47.4516129 Z" id="Oval-3" fill="#5591E6" fill-rule="nonzero"></path>
                <path d="M2.84384211,72.7660166 L2.84384211,83.9535088 C2.84384211,84.4626717 3.25660022,84.8754299 3.76576316,84.8754299 C3.93986259,84.8754299 4.11040361,84.8261324 4.25765171,84.7332421 L12.7257662,79.3911997 C13.156401,79.1195372 13.2852735,78.5502127 13.013611,78.1195778 C12.9471723,78.0142604 12.8600868,77.9234937 12.7576086,77.8527541 L4.28949418,72.0073044 C3.87046899,71.7180557 3.29629959,71.8232604 3.00705093,72.2422856 C2.90076565,72.3962576 2.84384211,72.5789231 2.84384211,72.7660166 Z M1,72.7660166 C1,72.2047363 1.17077064,71.6567397 1.48962647,71.1948235 C2.35737244,69.9377479 4.07988065,69.6221339 5.33695623,70.4898799 L13.8050707,76.3353297 C14.1125051,76.5475484 14.3737616,76.8198484 14.5730776,77.1358007 C15.3880653,78.4277052 15.0014478,80.1356788 13.7095433,80.9506664 L5.24142882,86.2927088 C4.79968451,86.5713797 4.28806144,86.719272 3.76576316,86.719272 C2.23827435,86.719272 1,85.4809976 1,83.9535088 L1,72.7660166 Z" id="Path-2" fill="#5591E6" fill-rule="nonzero"></path>
                <path d="M13.7715605,110.606038 C13.9489746,110.796008 13.9387964,111.093831 13.7488269,111.271245 C13.5588573,111.448659 13.261034,111.438481 13.0836199,111.248512 C12.9126627,111.065456 12.7329824,110.89076 12.5455797,110.725356 C11.4009708,109.71511 10.0108119,109.086458 8.61677409,108.964495 C4.98575585,108.646822 1.29668713,111.632448 0.968640175,115.382041 C0.628822801,119.266172 3.50205617,122.690358 7.38618652,123.030175 C11.2703169,123.369993 14.6945031,120.496759 15.0343204,116.612629 C15.1486893,115.305387 14.8579309,114.000205 14.2155954,112.816308 C14.0916367,112.587838 14.1763598,112.302139 14.4048296,112.17818 C14.6332994,112.054221 14.9189991,112.138944 15.0429577,112.367414 C15.7712456,113.709731 16.1029223,115.198591 15.9720325,116.694668 C15.5869061,121.096683 11.7061618,124.353014 7.30414735,123.967887 C2.90213295,123.582761 -0.354198199,119.702017 0.0309281572,115.300002 C0.404948146,111.024934 4.55720895,107.66444 8.69881326,108.026783 C10.3000615,108.166874 11.8775194,108.880226 13.1684632,110.019629 C13.3785538,110.205058 13.5799452,110.400863 13.7715605,110.606038 Z M7.2239136,118.612742 C7.07461718,118.74703 6.87502587,118.821217 6.66272847,118.821217 C6.44990166,118.821217 6.25136919,118.74703 6.10101393,118.612742 L4.391557,116.669714 C4.18455381,116.483777 4.18455381,116.183272 4.391557,115.997335 C4.59856019,115.811868 4.93368301,115.811868 5.14015678,115.997335 L6.66272847,117.772738 L11.583331,113.312554 C11.7898048,113.127087 12.1249276,113.127087 12.3319308,113.312554 C12.5384045,113.498491 12.5384045,113.798996 12.3319308,113.984933 L7.2239136,118.612742 Z" id="Combined-Shape" fill="#59C22D" fill-rule="nonzero"></path>
            </g>
        </g>
    </g>
</svg>