<?xml version="1.0" encoding="UTF-8" standalone="no"?>
<svg width="55px" height="55px" viewBox="0 0 55 55" version="1.1" xmlns="http://www.w3.org/2000/svg" xmlns:xlink="http://www.w3.org/1999/xlink">
    <!-- Generator: Sketch 46.2 (44496) - http://www.bohemiancoding.com/sketch -->
    <title>Combined Shape</title>
    <desc>Created with Sketch.</desc>
    <defs></defs>
    <g id="E、购买" stroke="none" stroke-width="1" fill="none" fill-rule="evenodd">
        <g id="微课-确认订单-copy" transform="translate(-484.000000, -285.000000)" fill="#85DC98">
            <g id="Group-3" transform="translate(352.000000, 235.000000)">
                <g id="Group" transform="translate(112.000000, 50.000000)">
                    <path d="M47.5,55 C32.3121694,55 20,42.6878306 20,27.5 C20,12.3121694 32.3121694,0 47.5,0 C62.6878306,0 75,12.3121694 75,27.5 C75,42.6878306 62.6878306,55 47.5,55 Z M47.5,53.28125 C61.7385891,53.28125 73.28125,41.7385912 73.28125,27.5 C73.28125,13.2614088 61.7385891,1.71875 47.5,1.71875 C33.2614109,1.71875 21.71875,13.2614088 21.71875,27.5 C21.71875,41.7385912 33.2614109,53.28125 47.5,53.28125 Z M46.2112853,34.1094145 L58.5538746,19.4000894 C58.9256904,18.9569766 59.5807943,18.8945417 60.01709,19.2606373 C60.4533858,19.6267329 60.5056571,20.282726 60.1338412,20.7258389 L47.1180199,36.2374908 C46.9321119,36.4590472 46.675382,36.5854341 46.4105921,36.61067 C46.1458022,36.6359058 45.8729523,36.5599907 45.6548044,36.3769429 L36.70166,28.8643627 C36.2653642,28.4982671 36.2130929,27.842274 36.5849088,27.3991611 C36.9567246,26.9560483 37.6118285,26.8936134 38.0481242,27.259709 L46.2112853,34.1094145 Z" id="Combined-Shape"></path>
                </g>
            </g>
        </g>
    </g>
</svg>