<?xml version="1.0" encoding="UTF-8" standalone="no"?>
<svg width="70px" height="210px" viewBox="0 0 70 210" version="1.1" xmlns="http://www.w3.org/2000/svg" xmlns:xlink="http://www.w3.org/1999/xlink">
    <!-- Generator: Sketch 46.1 (44463) - http://www.bohemiancoding.com/sketch -->
    <title>tag</title>
    <desc>Created with Sketch.</desc>
    <defs></defs>
    <g id="一级" stroke="none" stroke-width="1" fill="none" fill-rule="evenodd">
        <g id="切图" transform="translate(-123.000000, -61.000000)">
            <g id="tag" transform="translate(123.000000, 61.000000)">
                <g id="Group-Copy">
                    <path d="M4.26325641e-14,0 L38.1741369,0 L69.3790825,31.2049456 L69.3790825,69.3790825 L6.73905376e-14,1.04360964e-14 Z" id="Combined-Shape" fill-opacity="0.9" fill="#FFFFFF"></path>
                    <path d="M18.9169704,19.8349704 L23.8049704,19.8349704 C23.8569704,19.4579704 23.8959704,19.0939704 23.9349704,18.7429704 L25.3129704,18.9379704 C25.2739704,19.2499704 25.2349704,19.5489704 25.2089704,19.8349704 L30.0449704,19.8349704 L30.0449704,21.1089704 L25.0009704,21.1089704 C24.9489704,21.3689704 24.8839704,21.6289704 24.8319704,21.8889704 L28.4719704,21.8889704 L28.4719704,29.3899704 L30.3049704,29.3899704 L30.3049704,30.6249704 L18.6699704,30.6249704 L18.6699704,29.3899704 L20.4379704,29.3899704 L20.4379704,21.8889704 L23.4409704,21.8889704 L23.5969704,21.1089704 L18.9169704,21.1089704 L18.9169704,19.8349704 Z M21.7899704,29.3899704 L27.1199704,29.3899704 L27.1199704,28.6229704 L21.7899704,28.6229704 L21.7899704,29.3899704 Z M21.7899704,27.5569704 L27.1199704,27.5569704 L27.1199704,26.7769704 L21.7899704,26.7769704 L21.7899704,27.5569704 Z M21.7899704,25.7109704 L27.1199704,25.7109704 L27.1199704,24.9569704 L21.7899704,24.9569704 L21.7899704,25.7109704 Z M21.7899704,23.8779704 L27.1199704,23.8779704 L27.1199704,23.0849704 L21.7899704,23.0849704 L21.7899704,23.8779704 Z M38.7679704,26.2829704 L37.2469704,26.2829704 L37.2469704,27.2319704 L38.7679704,27.2319704 L38.7679704,26.2829704 Z M38.7679704,28.2719704 L37.2469704,28.2719704 L37.2469704,29.1819704 L38.7679704,29.1819704 L38.7679704,28.2719704 Z M39.9119704,29.1819704 L41.4069704,29.1819704 L41.4069704,28.2719704 L39.9119704,28.2719704 L39.9119704,29.1819704 Z M41.4069704,30.2999704 L37.2469704,30.2999704 L37.2469704,30.8459704 L36.0119704,30.8459704 L36.0119704,25.6719704 L35.7519704,25.8149704 L35.2319704,24.9699704 L35.2319704,25.3339704 C34.9199704,25.4899704 34.6209704,25.6459704 34.3349704,25.8019704 L34.3349704,29.3899704 C34.3349704,30.2739704 33.8929704,30.7159704 33.0219704,30.7159704 L31.9299704,30.7159704 L31.6309704,29.4289704 C31.9559704,29.4809704 32.2679704,29.5069704 32.5539704,29.5069704 C32.8399704,29.5069704 32.9829704,29.3509704 32.9829704,29.0389704 L32.9829704,26.3999704 C32.5539704,26.5689704 32.1249704,26.7249704 31.6959704,26.8809704 L31.3579704,25.5419704 C31.9039704,25.4119704 32.4499704,25.2429704 32.9829704,25.0479704 L32.9829704,22.4479704 L31.6179704,22.4479704 L31.6179704,21.1609704 L32.9829704,21.1609704 L32.9829704,18.8469704 L34.3349704,18.8469704 L34.3349704,21.1609704 L35.2709704,21.1609704 L35.2709704,22.4479704 L34.3349704,22.4479704 L34.3349704,24.4759704 L35.2319704,24.0079704 L35.2319704,24.6579704 C36.2849704,24.2549704 37.0909704,23.7739704 37.6629704,23.2019704 L35.5959704,23.2019704 L35.5959704,22.0319704 L36.8569704,22.0319704 C36.7139704,21.7199704 36.5579704,21.4339704 36.3759704,21.1739704 L37.4809704,20.7449704 C37.6629704,21.1089704 37.8449704,21.5379704 38.0009704,22.0319704 L38.7159704,22.0319704 L38.7159704,20.4719704 C37.8579704,20.5239704 36.9349704,20.5499704 35.9729704,20.5499704 L35.5829704,19.4449704 C38.3129704,19.4449704 40.6139704,19.2239704 42.5119704,18.8079704 L43.1359704,19.8739704 C42.2129704,20.1079704 41.1469704,20.2769704 39.9509704,20.3809704 L39.9509704,22.0319704 L40.6659704,22.0319704 C40.9129704,21.5379704 41.1339704,21.0309704 41.3289704,20.4849704 L42.4729704,20.8749704 C42.2779704,21.2909704 42.0699704,21.6809704 41.8489704,22.0319704 L43.2789704,22.0319704 L43.2789704,23.2019704 L41.0169704,23.2019704 C41.6669704,23.7479704 42.5509704,24.2289704 43.6689704,24.6449704 L43.0839704,25.7499704 C42.9149704,25.6719704 42.7719704,25.5939704 42.6419704,25.5159704 L42.6419704,30.8459704 L41.4069704,30.8459704 L41.4069704,30.2999704 Z M42.1219704,25.1909704 C41.2639704,24.6189704 40.5489704,23.9559704 39.9769704,23.2019704 L39.9509704,23.2019704 L39.9509704,24.8139704 L38.7159704,24.8139704 L38.7159704,23.2019704 L38.6899704,23.2019704 C38.2219704,23.9559704 37.5979704,24.6189704 36.7919704,25.1909704 L42.1219704,25.1909704 Z M39.9119704,27.2319704 L41.4069704,27.2319704 L41.4069704,26.2829704 L39.9119704,26.2829704 L39.9119704,27.2319704 Z M48.9989704,19.2369704 L55.7199704,19.2369704 L55.7199704,24.5149704 L52.9769704,24.5149704 L52.9769704,25.4249704 L56.2659704,25.4249704 L56.2659704,26.6729704 L54.0429704,26.6729704 C54.5889704,27.6479704 55.4599704,28.5319704 56.6299704,29.3249704 L55.7589704,30.4039704 C54.4589704,29.2729704 53.5489704,28.0249704 53.0029704,26.6729704 L52.9769704,26.6729704 L52.9769704,30.8199704 L51.7159704,30.8199704 L51.7159704,26.6729704 L51.7029704,26.6729704 C51.0919704,28.1809704 50.1169704,29.4159704 48.7649704,30.4039704 L48.0629704,29.2599704 C49.2069704,28.5579704 50.0779704,27.6999704 50.6499704,26.6729704 L48.4789704,26.6729704 L48.4789704,25.4249704 L51.7159704,25.4249704 L51.7159704,24.5149704 L48.9989704,24.5149704 L48.9989704,19.2369704 Z M54.4849704,23.3709704 L54.4849704,22.4479704 L52.9769704,22.4479704 L52.9769704,23.3709704 L54.4849704,23.3709704 Z M51.7159704,23.3709704 L51.7159704,22.4479704 L50.2339704,22.4479704 L50.2339704,23.3709704 L51.7159704,23.3709704 Z M50.2339704,21.3559704 L51.7159704,21.3559704 L51.7159704,20.4069704 L50.2339704,20.4069704 L50.2339704,21.3559704 Z M52.9769704,20.4069704 L52.9769704,21.3559704 L54.4849704,21.3559704 L54.4849704,20.4069704 L52.9769704,20.4069704 Z M46.2949704,18.8989704 C47.1139704,19.5229704 47.8159704,20.1599704 48.3879704,20.7839704 L47.4649704,21.7199704 C46.9709704,21.1219704 46.2559704,20.4979704 45.3329704,19.8219704 L46.2949704,18.8989704 Z M44.4489704,22.6429704 L47.4389704,22.6429704 L47.4389704,27.8429704 C47.7119704,27.5829704 47.9979704,27.3099704 48.2969704,27.0109704 L48.6479704,28.4019704 C47.9069704,29.1299704 47.1269704,29.7799704 46.3079704,30.3519704 L45.7879704,29.1429704 C46.0219704,28.9609704 46.1389704,28.7269704 46.1389704,28.4539704 L46.1389704,23.9429704 L44.4489704,23.9429704 L44.4489704,22.6429704 Z M62.8959704,19.2109704 L68.7329704,19.2109704 L68.7329704,23.2149704 L62.8959704,23.2149704 L62.8959704,19.2109704 Z M67.4199704,22.0189704 L67.4199704,20.4069704 L64.2219704,20.4069704 L64.2219704,22.0189704 L67.4199704,22.0189704 Z M62.5449704,24.1509704 L69.1099704,24.1509704 L69.1099704,25.3729704 L66.4319704,25.3729704 L66.4319704,26.5949704 L68.7069704,26.5949704 L68.7069704,27.8039704 L66.4319704,27.8039704 L66.4319704,29.1299704 L69.4219704,29.1299704 L69.4219704,30.4039704 L62.0509704,30.4039704 L62.0509704,29.1299704 L65.0539704,29.1299704 L65.0539704,27.8039704 L62.8439704,27.8039704 L62.8439704,26.5949704 L65.0539704,26.5949704 L65.0539704,25.3729704 L62.5449704,25.3729704 L62.5449704,24.1509704 Z M57.6829704,22.2269704 L59.4379704,22.2269704 L59.4379704,20.7709704 C58.9569704,20.8359704 58.4629704,20.8879704 57.9689704,20.9399704 L57.6959704,19.6659704 C59.2949704,19.5359704 60.7249704,19.2889704 61.9859704,18.8989704 L62.4669704,20.1729704 C61.9079704,20.3289704 61.3229704,20.4589704 60.7249704,20.5629704 L60.7249704,22.2269704 L62.1419704,22.2269704 L62.1419704,23.5139704 L60.7249704,23.5139704 L60.7249704,24.0209704 C61.2969704,24.5409704 61.8819704,25.0999704 62.4669704,25.7239704 L61.6999704,26.8809704 C61.3229704,26.2569704 60.9979704,25.7369704 60.7249704,25.3209704 L60.7249704,30.7809704 L59.4379704,30.7809704 L59.4379704,25.5289704 C59.0349704,26.5689704 58.5409704,27.5179704 57.9429704,28.3889704 L57.3449704,26.8679704 C58.2159704,25.8799704 58.8659704,24.7619704 59.2819704,23.5139704 L57.6829704,23.5139704 L57.6829704,22.2269704 Z" id="直播课程" fill="#5591E6" transform="translate(44.045970, 24.794470) rotate(45.000000) translate(-44.045970, -24.794470) "></path>
                </g>
                <g id="Group-2-Copy" transform="translate(0.000000, 70.000000)">
                    <path d="M4.26325641e-14,0 L38.1741369,0 L69.3790825,31.2049456 L69.3790825,69.3790825 L6.73905376e-14,1.04360964e-14 Z" id="Combined-Shape-Copy" fill-opacity="0.9" fill="#FFFFFF"></path>
                    <path d="M23.9349704,19.2109704 L30.4349704,19.2109704 L30.4349704,20.4849704 L27.9259704,20.4849704 C27.8739704,20.8489704 27.8089704,21.2129704 27.7309704,21.5509704 L30.0839704,21.5509704 L30.0839704,27.8819704 L28.8099704,27.8819704 L28.8099704,22.7469704 L25.5469704,22.7469704 L25.5469704,27.8819704 L24.2729704,27.8819704 L24.2729704,21.5509704 L26.4179704,21.5509704 C26.4959704,21.2129704 26.5479704,20.8489704 26.5999704,20.4849704 L23.9349704,20.4849704 L23.9349704,19.2109704 Z M28.3029704,27.7909704 C29.1869704,28.4929704 29.9539704,29.1949704 30.5779704,29.8839704 L29.6289704,30.8329704 C29.1089704,30.1569704 28.3809704,29.4159704 27.4319704,28.6359704 L28.3029704,27.7909704 Z M26.4959704,23.3579704 L27.7959704,23.3579704 L27.7959704,25.6459704 C27.7439704,27.0499704 27.4189704,28.1809704 26.8339704,29.0129704 C26.2489704,29.7929704 25.3129704,30.4039704 24.0389704,30.8199704 L23.2979704,29.6629704 C24.5199704,29.2599704 25.3519704,28.7659704 25.7939704,28.1679704 C26.2099704,27.5179704 26.4439704,26.6859704 26.4959704,25.6459704 L26.4959704,23.3579704 Z M20.0869704,20.9269704 C20.3989704,21.2259704 20.6719704,21.5119704 20.9319704,21.7979704 C21.2829704,21.4079704 21.6079704,20.9529704 21.9199704,20.4589704 L18.8649704,20.4589704 L18.8649704,19.2109704 L23.3629704,19.2109704 L23.3629704,20.2639704 C22.8559704,21.1999704 22.2969704,22.0059704 21.6989704,22.6689704 C21.8679704,22.8639704 22.0239704,23.0589704 22.1669704,23.2409704 L23.7139704,23.2409704 L23.7139704,24.0599704 C23.5059704,25.0739704 23.2719704,25.8669704 22.9989704,26.4389704 L21.8939704,26.0099704 C22.1019704,25.5809704 22.2839704,25.0739704 22.4529704,24.4889704 L21.5169704,24.4889704 L21.5169704,29.5329704 C21.5169704,30.3519704 21.1269704,30.7679704 20.3729704,30.7679704 L19.0989704,30.7679704 L18.8129704,29.5459704 C19.2029704,29.5979704 19.5669704,29.6239704 19.9179704,29.6239704 C20.1259704,29.6239704 20.2299704,29.4809704 20.2299704,29.2079704 L20.2299704,24.4889704 L18.5009704,24.4889704 L18.5009704,23.2409704 L20.6979704,23.2409704 C20.2299704,22.7079704 19.6969704,22.1489704 19.0989704,21.5509704 L20.0869704,20.9269704 Z M39.2749704,24.6969704 L39.6129704,25.9189704 C37.7929704,27.0629704 35.5309704,28.0769704 32.8139704,28.9609704 L32.2679704,27.7129704 C34.9849704,26.8939704 37.3249704,25.8929704 39.2749704,24.6969704 Z M34.3739704,21.7719704 C35.3749704,22.5389704 36.2329704,23.3059704 36.9349704,24.0599704 L35.9989704,25.0089704 C35.3879704,24.2939704 34.5299704,23.5269704 33.4119704,22.6949704 L34.3739704,21.7719704 Z M37.9879704,30.7549704 L37.6109704,29.4549704 C38.3389704,29.4809704 39.0799704,29.4939704 39.8209704,29.4939704 C40.1459704,29.4939704 40.3929704,29.3249704 40.5489704,29.0129704 C40.7049704,28.6879704 40.8089704,27.9209704 40.8349704,26.6989704 C40.8609704,25.8279704 40.8999704,23.8519704 40.9389704,20.7709704 L32.6059704,20.7709704 L32.6059704,19.4579704 L42.3039704,19.4579704 C42.2129704,24.0209704 42.1349704,26.7379704 42.0699704,27.6219704 C42.0179704,28.8049704 41.8489704,29.6109704 41.5759704,30.0529704 C41.3159704,30.4819704 40.8219704,30.7029704 40.1069704,30.7029704 C39.5349704,30.7159704 38.8329704,30.7289704 37.9879704,30.7549704 Z M53.8999704,21.9799704 C53.8219704,22.2919704 53.7569704,22.5779704 53.6789704,22.8639704 C53.8609704,23.9299704 54.0819704,24.8789704 54.3419704,25.7109704 C54.6279704,24.6189704 54.7839704,23.3709704 54.8359704,21.9799704 L53.8999704,21.9799704 Z M53.8219704,27.2579704 C53.5359704,26.4519704 53.2889704,25.5679704 53.0809704,24.5929704 C52.8989704,25.0089704 52.7169704,25.3989704 52.5219704,25.7499704 L51.7809704,24.8139704 C51.7809704,24.8009704 51.7939704,24.7879704 51.7939704,24.7879704 L47.8029704,24.7879704 L47.8029704,23.5919704 L51.9629704,23.5919704 L51.9629704,24.3979704 C52.5739704,22.9419704 52.9899704,21.0699704 53.2239704,18.7819704 L54.3939704,18.9899704 C54.3159704,19.5879704 54.2379704,20.1729704 54.1469704,20.7189704 L56.4089704,20.7189704 L56.4089704,21.9799704 L55.9799704,21.9799704 C55.9149704,24.1119704 55.6029704,25.9319704 55.0309704,27.4399704 C55.4729704,28.3629704 56.0059704,29.0909704 56.6039704,29.6109704 L55.8239704,30.7549704 C55.3039704,30.2349704 54.8359704,29.5589704 54.4329704,28.7269704 C53.9779704,29.5459704 53.4319704,30.2479704 52.7819704,30.8329704 L52.0669704,29.6889704 C52.7949704,29.0649704 53.3799704,28.2589704 53.8219704,27.2579704 Z M50.6629704,30.1179704 L50.1039704,28.9999704 C50.2599704,28.9089704 50.3639704,28.7659704 50.4029704,28.5839704 L50.4029704,26.6729704 L49.3889704,26.6729704 L49.3889704,27.2579704 C49.3629704,28.8179704 48.9599704,30.0009704 48.2059704,30.7809704 L47.1919704,29.8969704 C47.8159704,29.2859704 48.1279704,28.4019704 48.1409704,27.2579704 L48.1409704,25.4509704 L51.5859704,25.4509704 L51.5859704,28.0639704 C51.8719704,27.7909704 52.1709704,27.5049704 52.4699704,27.1929704 L52.7429704,28.3239704 C52.0669704,29.0519704 51.3649704,29.6499704 50.6629704,30.1179704 Z M49.4019704,18.8079704 L50.5199704,18.8079704 L50.5199704,21.6419704 L51.0529704,21.6419704 L51.0529704,19.5099704 L52.1449704,19.5099704 L52.1449704,22.7859704 L47.7639704,22.7859704 L47.7639704,19.5099704 L48.8559704,19.5099704 L48.8559704,21.6419704 L49.4019704,21.6419704 L49.4019704,18.8079704 Z M46.3729704,18.8079704 L47.5299704,19.3539704 C46.9969704,20.7449704 46.0869704,22.0059704 44.7869704,23.1499704 L44.3709704,21.8369704 C45.2679704,20.9789704 45.9309704,19.9649704 46.3729704,18.8079704 Z M46.4379704,22.2919704 L47.5689704,22.8379704 C47.3999704,23.2799704 47.2049704,23.7089704 46.9839704,24.1119704 L46.9839704,30.8589704 L45.7229704,30.8589704 L45.7229704,25.8799704 C45.4369704,26.1919704 45.1379704,26.4909704 44.8259704,26.7769704 L44.4229704,25.4899704 C45.3329704,24.5799704 46.0089704,23.5139704 46.4379704,22.2919704 Z M61.9989704,19.2369704 L68.7199704,19.2369704 L68.7199704,24.5149704 L65.9769704,24.5149704 L65.9769704,25.4249704 L69.2659704,25.4249704 L69.2659704,26.6729704 L67.0429704,26.6729704 C67.5889704,27.6479704 68.4599704,28.5319704 69.6299704,29.3249704 L68.7589704,30.4039704 C67.4589704,29.2729704 66.5489704,28.0249704 66.0029704,26.6729704 L65.9769704,26.6729704 L65.9769704,30.8199704 L64.7159704,30.8199704 L64.7159704,26.6729704 L64.7029704,26.6729704 C64.0919704,28.1809704 63.1169704,29.4159704 61.7649704,30.4039704 L61.0629704,29.2599704 C62.2069704,28.5579704 63.0779704,27.6999704 63.6499704,26.6729704 L61.4789704,26.6729704 L61.4789704,25.4249704 L64.7159704,25.4249704 L64.7159704,24.5149704 L61.9989704,24.5149704 L61.9989704,19.2369704 Z M67.4849704,23.3709704 L67.4849704,22.4479704 L65.9769704,22.4479704 L65.9769704,23.3709704 L67.4849704,23.3709704 Z M64.7159704,23.3709704 L64.7159704,22.4479704 L63.2339704,22.4479704 L63.2339704,23.3709704 L64.7159704,23.3709704 Z M63.2339704,21.3559704 L64.7159704,21.3559704 L64.7159704,20.4069704 L63.2339704,20.4069704 L63.2339704,21.3559704 Z M65.9769704,20.4069704 L65.9769704,21.3559704 L67.4849704,21.3559704 L67.4849704,20.4069704 L65.9769704,20.4069704 Z M59.2949704,18.8989704 C60.1139704,19.5229704 60.8159704,20.1599704 61.3879704,20.7839704 L60.4649704,21.7199704 C59.9709704,21.1219704 59.2559704,20.4979704 58.3329704,19.8219704 L59.2949704,18.8989704 Z M57.4489704,22.6429704 L60.4389704,22.6429704 L60.4389704,27.8429704 C60.7119704,27.5829704 60.9979704,27.3099704 61.2969704,27.0109704 L61.6479704,28.4019704 C60.9069704,29.1299704 60.1269704,29.7799704 59.3079704,30.3519704 L58.7879704,29.1429704 C59.0219704,28.9609704 59.1389704,28.7269704 59.1389704,28.4539704 L59.1389704,23.9429704 L57.4489704,23.9429704 L57.4489704,22.6429704 Z" id="预习微课" fill="#6FCBAA" transform="translate(44.065470, 24.820470) rotate(45.000000) translate(-44.065470, -24.820470) "></path>
                </g>
                <g id="Group-3-Copy" transform="translate(0.000000, 140.000000)">
                    <path d="M4.26325641e-14,0 L38.1741369,0 L69.3790825,31.2049456 L69.3790825,69.3790825 L6.73905376e-14,1.04360964e-14 Z" id="Combined-Shape-Copy-2" fill-opacity="0.9" fill="#FFFFFF"></path>
                    <path d="M22.9989704,19.2369704 L29.7199704,19.2369704 L29.7199704,24.5149704 L26.9769704,24.5149704 L26.9769704,25.4249704 L30.2659704,25.4249704 L30.2659704,26.6729704 L28.0429704,26.6729704 C28.5889704,27.6479704 29.4599704,28.5319704 30.6299704,29.3249704 L29.7589704,30.4039704 C28.4589704,29.2729704 27.5489704,28.0249704 27.0029704,26.6729704 L26.9769704,26.6729704 L26.9769704,30.8199704 L25.7159704,30.8199704 L25.7159704,26.6729704 L25.7029704,26.6729704 C25.0919704,28.1809704 24.1169704,29.4159704 22.7649704,30.4039704 L22.0629704,29.2599704 C23.2069704,28.5579704 24.0779704,27.6999704 24.6499704,26.6729704 L22.4789704,26.6729704 L22.4789704,25.4249704 L25.7159704,25.4249704 L25.7159704,24.5149704 L22.9989704,24.5149704 L22.9989704,19.2369704 Z M28.4849704,23.3709704 L28.4849704,22.4479704 L26.9769704,22.4479704 L26.9769704,23.3709704 L28.4849704,23.3709704 Z M25.7159704,23.3709704 L25.7159704,22.4479704 L24.2339704,22.4479704 L24.2339704,23.3709704 L25.7159704,23.3709704 Z M24.2339704,21.3559704 L25.7159704,21.3559704 L25.7159704,20.4069704 L24.2339704,20.4069704 L24.2339704,21.3559704 Z M26.9769704,20.4069704 L26.9769704,21.3559704 L28.4849704,21.3559704 L28.4849704,20.4069704 L26.9769704,20.4069704 Z M20.2949704,18.8989704 C21.1139704,19.5229704 21.8159704,20.1599704 22.3879704,20.7839704 L21.4649704,21.7199704 C20.9709704,21.1219704 20.2559704,20.4979704 19.3329704,19.8219704 L20.2949704,18.8989704 Z M18.4489704,22.6429704 L21.4389704,22.6429704 L21.4389704,27.8429704 C21.7119704,27.5829704 21.9979704,27.3099704 22.2969704,27.0109704 L22.6479704,28.4019704 C21.9069704,29.1299704 21.1269704,29.7799704 20.3079704,30.3519704 L19.7879704,29.1429704 C20.0219704,28.9609704 20.1389704,28.7269704 20.1389704,28.4539704 L20.1389704,23.9429704 L18.4489704,23.9429704 L18.4489704,22.6429704 Z M34.1399704,23.6959704 L34.1399704,23.7869704 C34.0619704,26.7249704 33.4899704,29.0779704 32.4239704,30.8199704 L31.4099704,29.7539704 C32.2679704,28.3239704 32.7359704,26.3349704 32.8009704,23.7869704 L32.8009704,19.6919704 C36.2329704,19.6659704 39.3009704,19.3929704 41.9789704,18.8729704 L42.6419704,20.0949704 C40.1199704,20.5629704 37.2859704,20.8359704 34.1399704,20.9139704 L34.1399704,22.3699704 L43.3309704,22.3699704 L43.3309704,23.6959704 L34.1399704,23.6959704 Z M42.3819704,25.1129704 L42.3819704,30.8459704 L41.0169704,30.8459704 L41.0169704,30.3519704 L36.4019704,30.3519704 L36.4019704,30.8459704 L35.0369704,30.8459704 L35.0369704,25.1129704 L42.3819704,25.1129704 Z M36.4019704,29.0259704 L41.0169704,29.0259704 L41.0169704,26.4129704 L36.4019704,26.4129704 L36.4019704,29.0259704 Z M50.4549704,21.8239704 C49.8569704,23.0719704 49.1939704,24.1379704 48.4659704,25.0219704 L47.4909704,23.8519704 C48.5309704,22.6299704 49.4409704,20.9139704 50.2209704,18.6779704 L51.5989704,18.9899704 C51.4169704,19.5099704 51.2349704,20.0039704 51.0529704,20.4849704 L56.2919704,20.4849704 L56.2919704,21.8239704 L52.2099704,21.8239704 L52.2099704,23.5529704 L55.7979704,23.5529704 L55.7979704,24.8789704 L52.2099704,24.8789704 L52.2099704,26.6599704 L55.7979704,26.6599704 L55.7979704,27.9729704 L52.2099704,27.9729704 L52.2099704,30.8719704 L50.8319704,30.8719704 L50.8319704,21.8239704 L50.4549704,21.8239704 Z M45.9049704,24.0729704 C45.5539704,24.4889704 45.1899704,24.8919704 44.7999704,25.2819704 L44.3449704,23.8259704 C45.6579704,22.3829704 46.6329704,20.6799704 47.2699704,18.7299704 L48.5569704,19.3279704 C48.2319704,20.3029704 47.8029704,21.2389704 47.2829704,22.1229704 L47.2829704,30.8719704 L45.9049704,30.8719704 L45.9049704,24.0729704 Z M61.3879704,18.8859704 L62.7529704,18.8859704 L62.7529704,29.0649704 L64.1829704,29.0649704 L64.1829704,18.8859704 L65.5479704,18.8859704 L65.5479704,29.0649704 L69.2919704,29.0649704 L69.2919704,30.3909704 L57.6699704,30.3909704 L57.6699704,29.0649704 L61.3879704,29.0649704 L61.3879704,18.8859704 Z M67.8489704,21.3429704 L69.0449704,21.6809704 C68.5509704,23.9039704 67.9269704,25.8539704 67.1729704,27.5179704 L65.9509704,27.0889704 C66.6789704,25.5809704 67.3029704,23.6569704 67.8489704,21.3429704 Z M59.0609704,21.3039704 C59.7109704,23.0329704 60.2959704,25.0219704 60.8029704,27.2579704 L59.5679704,27.5569704 C59.1259704,25.5289704 58.5799704,23.5789704 57.9039704,21.6939704 L59.0609704,21.3039704 Z" id="课后作业" fill="#F5A623" transform="translate(43.870470, 24.774970) rotate(45.000000) translate(-43.870470, -24.774970) "></path>
                </g>
            </g>
        </g>
    </g>
</svg>